<svg width="157" height="157" xmlns="http://www.w3.org/2000/svg"><path d="M136.517 93.817c-2.779 1.73-6.051 1.945-8.539.563-3.16-1.758-4.897-5.874-4.897-11.599V65.653c0-8.271-3.32-14.157-8.87-15.746-9.406-2.7-16.48 8.639-19.138 12.897L78.485 89.302V56.914c-.187-7.451-2.643-11.909-7.308-13.253-3.086-.888-7.703-.532-12.188 6.23l-37.165 58.795A63.832 63.832 0 0114.268 78.5c0-35.417 28.809-64.228 64.217-64.228s64.212 28.811 64.212 64.228c0 .061.016.115.02.172 0 .062-.012.115-.008.176.334 6.859-1.92 12.315-6.192 14.973v-.004zm20.448-15.313v-.18l-.004-.176C156.763 35.015 121.64 0 78.481 0 35.21 0 0 35.214 0 78.5 0 121.782 35.21 157 78.485 157c19.857 0 38.808-7.436 53.356-20.935a7.13 7.13 0 00.381-10.082 7.106 7.106 0 00-4.96-2.279 7.123 7.123 0 00-5.122 1.896c-11.792 11.001-27.415 17.131-43.655 17.128-18.96 0-36.019-8.267-47.784-21.378l33.515-53.02v24.442c0 11.74 4.622 15.535 8.497 16.646 3.879 1.11 9.806.352 16.029-9.604l18.434-29.444a53.3 53.3 0 011.633-2.477V82.78c0 10.975 4.462 19.751 12.239 24.075 7.012 3.898 15.827 3.546 23.01-.92 8.706-5.418 13.397-15.4 12.907-27.432z"/></svg>