<?xml version="1.0" encoding="UTF-8" standalone="no"?>
<!DOCTYPE svg PUBLIC "-//W3C//DTD SVG 1.1//EN" "http://www.w3.org/Graphics/SVG/1.1/DTD/svg11.dtd">
<svg version="1.1" xmlns="http://www.w3.org/2000/svg" xmlns:xlink="http://www.w3.org/1999/xlink" preserveAspectRatio="xMidYMid meet" viewBox="351.3263505910403 296.2409863950555 150.1194530788685 49.24973856232947" width="146.12" height="45.25"><defs><path d="M436.94 301.34L448.49 316.98L472.32 298.75L473.16 299.53L448.19 319.14L436.46 303.81L413.72 312.47L436.94 301.34Z" id="aCdztPw9h"></path><path d="M469.11 299.73C469.11 299.73 473.92 297.4 474.32 297.24C474.72 297.08 471.43 302.38 471.43 302.38" id="b1pz08sCGj"></path><path d="M431.39 332.78C431.01 332.79 430.71 332.94 430.71 333.14C430.71 333.6 430.71 337.34 430.71 337.8C430.71 337.99 431.02 338.15 431.39 338.16C431.41 338.16 431.57 338.16 431.59 338.16C431.96 338.16 432.26 338 432.26 337.8C432.26 337.34 432.26 333.6 432.26 333.14C432.27 332.94 431.96 332.78 431.59 332.78C431.55 332.78 431.41 332.78 431.39 332.78Z" id="d5Zq8rzUXV"></path><path d="M420.07 332.88L420.07 335.3C420.48 335.3 420.71 335.3 420.75 335.3C421.09 335.3 421.41 335.22 421.41 334.93C421.41 334.76 421.41 333.38 421.41 333.21C421.41 332.97 421.09 332.88 420.75 332.88C420.66 332.88 420.44 332.88 420.07 332.88Z" id="a6wQhn8yWf"></path><path d="M451.95 332.78C451.57 332.79 451.27 332.94 451.27 333.14C451.27 333.6 451.27 337.34 451.27 337.8C451.27 337.99 451.58 338.15 451.95 338.16C451.97 338.16 452.13 338.16 452.14 338.16C452.52 338.16 452.82 338 452.82 337.8C452.82 337.34 452.82 333.6 452.82 333.14C452.83 332.94 452.52 332.78 452.14 332.78C452.11 332.78 451.97 332.78 451.95 332.78Z" id="ciGVyeccX"></path><path d="M409.69 332.88L409.69 335.19C410.09 335.19 410.32 335.19 410.36 335.19C410.72 335.19 411.01 335.05 411.04 334.87C411.04 334.71 411.04 333.36 411.04 333.19C411.01 333.02 410.72 332.88 410.36 332.88C410.27 332.88 410.05 332.88 409.69 332.88Z" id="m1nC4467Jr"></path><path d="M417.01 319.15C415.74 319.15 405.59 319.15 404.32 319.15C404.02 319.15 403.87 319.22 403.87 319.36C403.87 319.59 403.87 320.76 403.87 322.87C411.76 322.87 416.14 322.87 417.01 322.87C418.18 322.87 419 322.75 419.48 322.5C419.97 322.25 420.21 321.87 420.21 321.37C420.21 321.29 420.21 320.73 420.21 320.66C420.2 320.15 419.96 319.77 419.48 319.52C419 319.28 418.18 319.15 417.01 319.15Z" id="bneezHjGB"></path><path d="M490.84 319.3C490.26 319.22 489.52 319.19 488.63 319.19C487.61 319.19 479.45 319.19 478.44 319.19C477.55 319.19 476.81 319.22 476.22 319.3C475.64 319.37 475.17 319.49 474.83 319.67C474.49 319.85 474.24 320.08 474.09 320.38C473.94 320.68 473.87 321.04 473.87 321.49C473.87 321.71 473.87 323.51 473.87 323.73C473.87 324.17 473.94 324.54 474.09 324.84C474.24 325.14 474.49 325.37 474.83 325.55C475.17 325.73 475.64 325.85 476.22 325.92C476.8 325.99 477.54 326.03 478.44 326.03C479.45 326.03 487.61 326.03 488.63 326.03C489.52 326.03 490.26 325.99 490.84 325.92C491.42 325.85 491.89 325.73 492.23 325.55C492.58 325.38 492.82 325.14 492.97 324.84C493.12 324.54 493.2 324.17 493.2 323.73C493.2 323.51 493.2 321.71 493.2 321.49C493.2 321.05 493.12 320.68 492.97 320.38C492.82 320.08 492.58 319.84 492.23 319.67C491.89 319.5 491.43 319.37 490.84 319.3Z" id="bxX7S0vii"></path><path d="M473.4 332.78C473.03 332.79 472.72 332.94 472.72 333.14C472.72 333.6 472.72 337.34 472.72 337.8C472.72 337.99 473.03 338.15 473.4 338.16C473.42 338.16 473.58 338.16 473.6 338.16C473.98 338.16 474.28 338 474.28 337.8C474.28 337.34 474.28 333.6 474.28 333.14C474.28 332.94 473.98 332.78 473.6 332.78C473.56 332.78 473.42 332.78 473.4 332.78Z" id="aoLzCTGY"></path><path d="M408.42 332.27C408.42 336.03 408.42 338.12 408.42 338.54C408.42 338.58 408.47 338.67 408.78 338.67C408.84 338.67 409.14 338.67 409.69 338.67L409.69 335.8C410.15 335.8 410.4 335.8 410.46 335.8C411.69 335.8 412.28 335.35 412.28 334.73C412.28 334.56 412.28 333.24 412.28 333.07C412.28 332.62 411.51 332.27 410.65 332.27C410.35 332.27 409.61 332.27 408.42 332.27ZM410.37 335.19C410.32 335.19 410.1 335.19 409.69 335.19L409.69 332.88C410.1 332.88 410.32 332.88 410.37 332.88C410.72 332.88 411.01 333.02 411.05 333.19C411.05 333.31 411.05 333.87 411.05 334.87C410.83 335.08 410.61 335.19 410.37 335.19Z" id="aLX8LkSnC"></path><path d="M422.7 333.07C422.7 332.62 421.99 332.27 421.13 332.27C420.97 332.27 420.19 332.27 418.79 332.27L418.79 338.67L420.07 338.67L420.07 335.92C420.48 335.92 420.71 335.92 420.75 335.92C421.09 335.92 421.41 336.02 421.41 336.33C421.41 336.49 421.41 337.27 421.41 338.67L422.7 338.67C422.7 337.2 422.7 336.39 422.7 336.22C422.7 336.22 422.74 335.74 422.24 335.62C422.75 335.55 422.7 335.05 422.7 335.05C422.7 334.66 422.7 333.27 422.7 333.07ZM420.75 335.3C420.71 335.3 420.48 335.3 420.07 335.3L420.07 332.88C420.48 332.88 420.71 332.88 420.75 332.88C421.09 332.88 421.41 332.97 421.41 333.21C421.41 333.32 421.41 333.9 421.41 334.93C421.2 335.17 420.98 335.3 420.75 335.3Z" id="b264yc7bOo"></path><path d="M431.03 332.2C430.14 332.2 429.42 332.57 429.42 333.02C429.42 333.51 429.42 337.44 429.42 337.93C429.44 338.37 430.16 338.74 431.03 338.74C431.13 338.74 431.92 338.74 432.01 338.74C432.87 338.72 433.55 338.37 433.57 337.93C433.57 337.44 433.57 333.51 433.57 333.02C433.57 332.58 432.87 332.22 432.01 332.2C431.82 332.2 431.13 332.2 431.03 332.2ZM431.59 338.16C431.57 338.16 431.41 338.16 431.39 338.16C431.02 338.15 430.71 337.99 430.71 337.8C430.71 337.34 430.71 333.6 430.71 333.14C430.71 332.94 431.02 332.79 431.39 332.78C431.41 332.78 431.57 332.78 431.59 332.78C431.97 332.78 432.27 332.94 432.27 333.14C432.27 333.45 432.27 335 432.27 337.8C432.06 338.04 431.84 338.16 431.59 338.16Z" id="cciVsBl3S"></path><path d="M439.24 332.92L441.04 332.92C441.04 336.29 441.04 338.16 441.04 338.54C441.04 338.58 441.09 338.67 441.4 338.67C441.46 338.67 441.76 338.67 442.31 338.67C442.31 335.31 442.31 333.45 442.31 333.07C442.33 332.99 442.45 332.92 442.63 332.92C442.73 332.92 443.53 332.92 443.63 332.92C444.05 332.92 444.24 332.82 444.31 332.74C444.34 332.71 444.48 332.55 444.74 332.27C441.67 332.27 439.97 332.27 439.63 332.27C439.42 332.27 439.24 332.36 439.24 332.47C439.24 332.53 439.24 332.68 439.24 332.92Z" id="beIq9rjcG"></path><path d="M451.59 332.2C450.7 332.2 449.98 332.57 449.98 333.02C449.98 333.51 449.98 337.44 449.98 337.93C450 338.37 450.72 338.74 451.59 338.74C451.69 338.74 452.48 338.74 452.57 338.74C453.43 338.72 454.11 338.37 454.13 337.93C454.13 337.44 454.13 333.51 454.13 333.02C454.13 332.58 453.43 332.22 452.57 332.2C452.38 332.2 451.69 332.2 451.59 332.2ZM452.15 338.16C452.13 338.16 451.97 338.16 451.95 338.16C451.58 338.15 451.27 337.99 451.27 337.8C451.27 337.34 451.27 333.6 451.27 333.14C451.27 332.94 451.58 332.79 451.95 332.78C451.97 332.78 452.13 332.78 452.15 332.78C452.53 332.78 452.83 332.94 452.83 333.14C452.83 333.45 452.83 335 452.83 337.8C452.62 338.04 452.4 338.16 452.15 338.16Z" id="hJsHYJcmH"></path><path d="M462.46 332.2C461.57 332.2 460.86 332.57 460.86 333.02C460.86 333.51 460.86 337.43 460.86 337.92C460.86 338.37 461.57 338.74 462.46 338.74C462.54 338.74 463.17 338.74 463.25 338.74C464.11 338.72 464.79 338.36 464.79 337.92C464.79 337.77 464.79 336.53 464.79 336.38C464.47 336.45 463.96 336.56 463.86 336.59C463.7 336.63 463.52 336.73 463.52 336.94C463.52 337.03 463.52 337.72 463.52 337.8C463.52 338 463.21 338.16 462.82 338.16C462.44 338.16 462.14 338 462.14 337.8C462.14 337.33 462.14 333.59 462.14 333.13C462.14 332.93 462.44 332.78 462.82 332.78C463.21 332.78 463.52 332.93 463.52 333.13C463.52 333.22 463.52 333.7 463.52 334.56C464.07 334.43 464.38 334.36 464.45 334.34C464.61 334.3 464.79 334.2 464.79 333.99C464.79 333.89 464.79 333.11 464.79 333.01C464.79 332.58 464.11 332.21 463.25 332.2C463.09 332.2 462.54 332.2 462.46 332.2Z" id="eUYyFcjU"></path><path d="M473.05 332.2C472.15 332.2 471.44 332.57 471.44 333.02C471.44 333.51 471.44 337.44 471.44 337.93C471.45 338.37 472.17 338.74 473.05 338.74C473.14 338.74 473.93 338.74 474.03 338.74C474.89 338.72 475.56 338.37 475.58 337.93C475.58 337.44 475.58 333.51 475.58 333.02C475.58 332.58 474.89 332.22 474.03 332.2C473.83 332.2 473.14 332.2 473.05 332.2ZM473.6 338.16C473.58 338.16 473.43 338.16 473.41 338.16C473.03 338.15 472.73 337.99 472.73 337.8C472.73 337.34 472.73 333.6 472.73 333.14C472.73 332.94 473.03 332.79 473.41 332.78C473.43 332.78 473.58 332.78 473.6 332.78C473.98 332.78 474.28 332.94 474.28 333.14C474.28 333.45 474.28 335 474.28 337.8C474.08 338.04 473.85 338.16 473.6 338.16Z" id="bdwPL95Uh"></path><path d="M483.54 332.27C483.48 332.27 483.18 332.27 482.65 332.27L482.65 338.67C484.49 338.67 485.52 338.67 485.72 338.67C486.14 338.67 486.33 338.58 486.42 338.5C486.47 338.44 486.69 338.19 486.83 338.02C486.64 338.02 485.68 338.02 483.94 338.02L483.94 332.47C483.82 332.34 483.68 332.27 483.54 332.27Z" id="bG1IA7Kwr"></path><path d="M420.34 324.66C422.15 324.5 423.46 324.14 424.25 323.58C425.06 323.01 425.45 322.25 425.45 321.28C425.45 321.18 425.45 320.41 425.45 320.31C425.45 319.17 424.88 318.3 423.74 317.71C422.59 317.13 420.7 316.83 418.07 316.83C416.23 316.83 401.49 316.83 399.64 316.83C398.96 316.83 398.61 317 398.61 317.34C398.61 318.43 398.61 327.19 398.61 328.28C398.61 328.53 398.88 328.66 399.4 328.66C399.77 328.66 402.74 328.66 403.11 328.66C403.61 328.66 403.86 328.53 403.86 328.28C403.86 328.06 403.86 326.94 403.86 324.93L414.95 324.93C418.2 327.04 420.01 328.21 420.37 328.44C420.48 328.52 420.6 328.58 420.72 328.61C420.83 328.64 421.04 328.66 421.33 328.66C421.78 328.66 425.32 328.66 425.76 328.66C426.08 328.66 426.26 328.61 426.31 328.49C426.36 328.38 426.32 328.3 426.21 328.24C425.04 327.52 420.93 325.02 420.34 324.66ZM419.48 322.5C419 322.75 418.18 322.87 417.01 322.87C416.13 322.87 411.75 322.87 403.87 322.87C403.87 320.76 403.87 319.59 403.87 319.36C403.87 319.22 404.01 319.15 404.31 319.15C405.58 319.15 415.74 319.15 417.01 319.15C418.18 319.15 419 319.28 419.48 319.52C419.96 319.77 420.2 320.15 420.2 320.66C420.2 320.7 420.2 320.94 420.2 321.37C420.04 321.95 419.8 322.33 419.48 322.5Z" id="i4Uig3pOP"></path><path d="M430.46 316.84C429.94 316.84 429.67 316.96 429.67 317.21C429.67 318.32 429.67 327.18 429.67 328.29C429.67 328.54 429.94 328.66 430.46 328.66C430.83 328.66 433.8 328.66 434.17 328.66C434.67 328.66 434.92 328.54 434.92 328.29C434.92 327.18 434.92 318.32 434.92 317.21C434.93 316.96 434.67 316.84 434.17 316.84C433.43 316.84 430.83 316.84 430.46 316.84Z" id="aA05cRsH0"></path><path d="M464.09 318.81C464.09 318.65 464.09 317.37 464.09 317.21C464.09 316.96 463.84 316.84 463.34 316.84C462.57 316.84 458.73 316.84 451.82 316.84L448.81 319.18L463.34 319.18C463.84 319.1 464.09 318.98 464.09 318.81Z" id="btAAQjYSv"></path><path d="M458.98 321.65C457.69 321.65 447.4 321.65 446.11 321.65C444.92 321.65 444.33 321.34 444.33 320.71C444.33 320.65 444.33 320.19 444.33 320.13C444.33 319.84 444.46 319.61 444.74 319.44C445.01 319.27 445.48 319.19 446.15 319.19C446.25 319.19 446.73 319.19 447.61 319.19L445.58 316.84C445.32 316.84 445.18 316.84 445.15 316.84C443.07 316.84 441.54 317.09 440.56 317.6C439.57 318.1 439.08 318.77 439.08 319.59C439.08 319.72 439.08 320.7 439.08 320.82C439.08 321.76 439.58 322.48 440.59 322.98C441.6 323.48 443.1 323.73 445.09 323.73C446.37 323.73 456.67 323.73 457.95 323.73C459.14 323.73 459.74 324.04 459.74 324.67C459.74 324.74 459.74 325.3 459.74 325.37C459.74 325.66 459.6 325.89 459.32 326.06C459.05 326.23 458.58 326.32 457.92 326.32C456.11 326.32 441.7 326.32 439.9 326.32C439.37 326.32 439.11 326.44 439.11 326.69C439.11 326.85 439.11 328.13 439.11 328.29C439.11 328.54 439.37 328.67 439.9 328.67C441.8 328.67 457.01 328.67 458.91 328.67C460.99 328.67 462.52 328.41 463.51 327.91C464.49 327.4 464.98 326.74 464.98 325.91C464.98 325.78 464.98 324.7 464.98 324.56C464.99 323.62 464.48 322.91 463.48 322.4C462.47 321.9 460.97 321.65 458.98 321.65Z" id="a2lZIrbJlI"></path><path d="M496.26 317.86C495.5 317.51 494.5 317.25 493.28 317.08C492.06 316.92 490.57 316.84 488.84 316.84C487.78 316.84 479.29 316.84 478.23 316.84C476.49 316.84 475.02 316.92 473.8 317.08C472.59 317.25 471.6 317.5 470.84 317.86C470.07 318.21 469.51 318.67 469.15 319.24C468.8 319.8 468.62 320.49 468.62 321.3C468.62 321.56 468.62 323.65 468.62 323.92C468.62 324.73 468.8 325.42 469.15 325.99C469.51 326.56 470.07 327.02 470.84 327.37C471.6 327.72 472.59 327.98 473.8 328.14C475.01 328.3 476.49 328.38 478.23 328.38C478.74 328.38 481.29 328.38 485.88 328.38C488.25 330.07 489.57 331.01 489.83 331.2C489.94 331.26 490.06 331.31 490.18 331.35C490.29 331.38 490.5 331.4 490.79 331.4C491.23 331.4 494.75 331.4 495.18 331.4C495.51 331.4 495.68 331.34 495.72 331.23C495.75 331.12 495.72 331.04 495.63 330.98C495.24 330.71 492.08 328.56 491.69 328.29C494.11 328.14 495.85 327.71 496.89 327.02C497.92 326.32 498.45 325.29 498.45 323.92C498.45 323.65 498.45 321.56 498.45 321.3C498.45 320.49 498.27 319.8 497.93 319.24C497.58 318.67 497.03 318.21 496.26 317.86ZM492.97 324.84C492.82 325.13 492.58 325.37 492.23 325.54C491.89 325.72 491.43 325.84 490.84 325.92C490.26 325.99 489.52 326.03 488.63 326.03C487.61 326.03 479.45 326.03 478.44 326.03C477.55 326.03 476.81 325.99 476.22 325.92C475.64 325.85 475.17 325.72 474.83 325.54C474.49 325.37 474.24 325.14 474.09 324.84C473.94 324.54 473.87 324.17 473.87 323.73C473.87 323.5 473.87 321.71 473.87 321.48C473.87 321.04 473.94 320.68 474.09 320.38C474.24 320.08 474.49 319.84 474.83 319.67C475.17 319.49 475.64 319.37 476.22 319.29C476.8 319.22 477.54 319.18 478.44 319.18C479.45 319.18 487.61 319.18 488.63 319.18C489.52 319.18 490.26 319.22 490.84 319.29C491.42 319.36 491.89 319.49 492.23 319.67C492.58 319.84 492.82 320.08 492.97 320.38C493.12 320.67 493.2 321.04 493.2 321.48C493.2 321.63 493.2 322.38 493.2 323.73C493.14 324.27 493.07 324.63 492.97 324.84Z" id="bfZ8ov2qA"></path><path d="M354.39 300.08C354.41 299.64 354.45 299.19 354.5 298.75C354.5 298.75 354.5 298.75 354.5 298.75C354.5 298.75 354.5 298.75 354.5 298.75C354.02 299.06 353.77 299.57 353.54 300.11C353.41 300.42 353.29 300.73 353.14 301.02C352.46 302.33 352.45 303.65 352.66 305.16C352.78 306.08 353.17 306.65 353.61 307.14C353.73 307.28 353.85 307.4 353.97 307.53C354.16 307.74 354.36 307.94 354.53 308.17C354.55 305.45 354.24 302.77 354.39 300.08Z" id="a4BGKoahb"></path><path d="M355.3 313.38C355.36 313.38 355.43 313.38 355.49 313.38C355.59 313.38 355.68 313.39 355.78 313.39C355.84 313.4 355.91 313.4 355.97 313.4C356.03 313.41 356.1 313.41 356.16 313.42C356.19 313.42 356.22 313.43 356.26 313.43C356.83 313.48 357.4 313.6 357.95 313.84C358.21 313.96 358.48 314.07 358.76 314.18C358.9 314.23 359.03 314.29 359.17 314.34C359.26 314.37 359.35 314.41 359.43 314.44C360.04 314.66 360.65 314.88 361.25 315.1C361.38 315.15 361.52 315.17 361.66 315.21C361.76 314.91 361.71 314.7 361.56 314.54C361.56 314.54 361.56 314.54 361.56 314.54C361.54 314.53 361.53 314.52 361.51 314.5C361.5 314.48 361.48 314.47 361.46 314.46C361.4 314.42 361.34 314.38 361.27 314.34C360.39 313.88 359.55 313.31 358.64 312.9C358.59 312.87 358.54 312.85 358.49 312.83C358.33 312.77 358.17 312.71 358 312.65C357.95 312.64 357.91 312.63 357.87 312.62C357.74 312.58 357.61 312.55 357.48 312.53C357.43 312.52 357.39 312.51 357.34 312.51C357.21 312.49 357.08 312.48 356.95 312.47C356.77 312.46 356.6 312.47 356.43 312.48C356.37 312.49 356.31 312.5 356.24 312.51C355.29 312.63 354.36 312.95 353.42 313.18C353.42 313.24 353.42 313.3 353.42 313.36C353.42 313.36 353.42 313.36 353.42 313.37C353.42 313.37 353.42 313.37 353.42 313.37C353.42 313.37 353.42 313.37 353.42 313.37C353.92 313.36 354.42 313.36 354.91 313.37C355.04 313.37 355.17 313.37 355.3 313.38Z" id="frJytBvZT"></path><path d="M358.42 317.65C358.51 317.63 358.6 317.61 358.69 317.58C358.72 317.58 358.76 317.56 358.79 317.55C359.21 317.42 359.63 317.19 360.05 316.86C359.66 316.85 359.29 316.83 358.92 316.82C358.7 316.81 358.49 316.81 358.28 316.8C358.21 316.8 358.14 316.8 358.07 316.79C357.57 316.77 357.09 316.75 356.6 316.72C356.33 316.7 356.01 316.57 355.82 316.4C355.8 316.39 355.79 316.38 355.78 316.37C355.68 316.27 355.58 316.17 355.48 316.07C354.77 315.36 354.09 314.63 353.42 313.89C353.37 313.84 353.33 313.79 353.28 313.75C353.01 313.53 352.72 313.49 352.33 313.58C352.33 313.58 352.33 313.58 352.33 313.58C352.33 313.58 352.33 313.58 352.33 313.58C352.39 313.69 352.44 313.78 352.49 313.87C352.49 313.89 352.51 313.91 352.51 313.92C352.72 314.32 352.97 314.69 353.25 315.03C353.27 315.06 353.3 315.09 353.33 315.12C353.37 315.17 353.41 315.22 353.45 315.27C353.94 315.82 354.52 316.31 355.15 316.76C355.85 317.26 356.6 317.6 357.37 317.7C357.5 317.71 357.63 317.72 357.77 317.72C357.79 317.72 357.82 317.72 357.85 317.72C357.89 317.72 357.94 317.72 357.99 317.71C358.09 317.7 358.17 317.69 358.27 317.68C358.32 317.67 358.37 317.66 358.42 317.65Z" id="b2VAUC1JJo"></path><path d="M368.94 333.2C368.96 333.13 368.98 333.05 369.01 332.98C369.03 332.9 369.06 332.83 369.08 332.76C369.37 331.85 369.67 330.94 369.92 330.03C370.02 329.65 370.12 329.27 370.21 328.88C370.25 328.73 370.28 328.57 370.31 328.42C370.36 328.19 370.4 327.96 370.44 327.73C370.46 327.57 370.49 327.42 370.51 327.26C370.54 327.03 370.56 326.79 370.58 326.56C370.6 326.4 370.61 326.24 370.61 326.08C370.62 326 370.62 325.93 370.62 325.85C370.62 325.77 370.62 325.69 370.62 325.61C370.62 325.53 370.62 325.45 370.62 325.37C370.62 325.06 370.47 324.55 370.23 324.46C369.27 324.11 368.29 323.79 367.3 323.48C367.1 323.42 366.91 323.36 366.71 323.29C366.36 323.19 366.02 323.08 365.68 322.97C365.63 322.95 365.57 322.94 365.52 322.92C365.48 322.97 365.43 323.01 365.39 323.05C365.85 323.63 366.28 324.23 366.79 324.78C367.31 325.34 367.5 325.95 367.5 326.68C367.49 326.92 367.49 327.17 367.49 327.42C367.49 327.42 367.49 327.42 367.49 327.42C367.49 327.92 367.5 328.4 367.51 328.9C367.52 329.64 367.54 330.38 367.54 331.12C367.54 331.37 367.54 331.61 367.54 331.86C367.54 332.11 367.54 332.36 367.54 332.6C367.54 332.85 367.57 333.07 367.64 333.29C367.78 333.76 368.09 334.16 368.51 334.62C368.57 334.45 368.61 334.28 368.66 334.12C368.69 334.04 368.71 333.96 368.73 333.88C368.8 333.64 368.87 333.42 368.94 333.2Z" id="a1rQF5vL2c"></path><path d="M371.96 341.29C371.9 341.3 371.84 341.32 371.77 341.34C372.1 341.72 372.39 342.03 372.82 342.21C372.89 342.24 372.98 342.27 373.07 342.29C373.2 342.33 373.34 342.35 373.5 342.37C374.47 342.45 375.44 342.49 376.41 342.49C376.41 342.31 376.41 340.86 376.41 340.67C375.09 340.67 373.77 340.83 372.44 341.16C372.37 341.18 372.31 341.2 372.24 341.21C372.14 341.24 372.05 341.26 371.96 341.29Z" id="g1WEsO3FW"></path><path d="M376.38 340.35C376.39 340.35 376.4 340.35 376.41 340.35C376.41 340.33 376.41 340.12 376.41 340.09C375.05 340.1 373.7 339.94 372.32 339.62C372.12 339.99 371.92 340.38 371.58 341.01C373.21 340.58 374.79 340.35 376.38 340.35Z" id="kMeRanVKS"></path><path d="M374.28 333.75C374.21 333.75 374.15 333.75 374.09 333.76C373.85 333.77 373.61 333.8 373.38 333.86C373.26 333.88 373.15 333.92 373.03 333.96C372.92 334 372.81 334.05 372.69 334.1C372.41 334.23 372.12 334.41 371.83 334.63C372.02 334.66 372.2 334.69 372.38 334.72C372.39 334.72 372.41 334.73 372.42 334.73C372.47 334.73 372.51 334.75 372.56 334.75C373.15 334.89 373.62 335.13 373.85 335.64C373.89 335.74 373.93 335.85 373.95 335.97C373.95 335.98 373.96 335.99 373.96 335.99C373.96 335.99 373.97 336 373.97 336C373.97 336.01 373.98 336.01 373.99 336.02C374 336.03 374.01 336.04 374.03 336.05C374.04 336.05 374.06 336.06 374.07 336.07C374.11 336.11 374.16 336.14 374.21 336.17C374.27 336.2 374.33 336.24 374.4 336.27C374.84 336.48 375.41 336.61 376.01 336.64C376.14 336.65 376.28 336.65 376.42 336.65C376.42 336.37 376.42 334.11 376.42 333.83C375.83 333.83 375.25 333.81 374.67 333.76C374.53 333.76 374.4 333.75 374.28 333.75C374.28 333.75 374.28 333.75 374.28 333.75Z" id="a382Q2kjm7"></path><path d="M361.04 310.16C361.38 310.5 361.72 310.84 362.06 311.18C362.14 311.09 362.22 310.99 362.29 310.9C362.39 310.75 362.49 310.6 362.57 310.44C362.64 310.28 362.71 310.13 362.76 309.97C362.78 309.9 362.81 309.83 362.83 309.75C363.01 309.09 363.04 308.37 363.02 307.63C363.02 307.42 363 307.27 362.96 307.15C362.96 307.15 362.96 307.15 362.96 307.15C362.88 306.96 362.74 306.88 362.46 306.86C360.67 306.75 358.88 306.69 357.16 305.9C357.15 305.9 357.14 305.89 357.12 305.89C357.06 305.87 356.98 305.88 356.91 305.86C356.91 305.88 356.91 305.89 356.91 305.9C356.9 305.93 356.89 305.96 356.88 306C356.9 306.01 356.91 306.02 356.93 306.04C358.31 307.42 359.68 308.8 361.04 310.16Z" id="bgDB5wevA"></path><path d="M355.3 308.85C355.42 308.91 355.54 308.97 355.66 309.03C355.78 309.09 355.9 309.15 356.02 309.2C356.35 309.36 356.67 309.51 356.99 309.65C357.09 309.69 357.18 309.73 357.27 309.77C357.67 309.94 358.07 310.11 358.48 310.26C358.66 310.33 358.84 310.4 359.02 310.46C359.74 310.71 360.46 310.94 361.2 311.13C361.25 311.14 361.3 311.15 361.36 311.16C361.4 311.17 361.43 311.17 361.48 311.18C361.5 311.18 361.53 311.19 361.56 311.19C361.56 311.19 361.56 311.19 361.56 311.19C361.56 311.19 361.56 311.19 361.56 311.19C361.11 310.63 360.63 310.15 360.16 309.67C360.08 309.58 360 309.49 359.91 309.41C358.15 307.52 356.11 306.02 354.76 303.53C354.75 303.52 354.73 303.52 354.62 303.46C354.7 305.01 354.78 306.5 354.83 307.99C354.83 308.01 354.83 308.03 354.83 308.05C354.85 308.49 354.99 308.69 355.3 308.85Z" id="erVG73Mq1"></path><path d="M372.99 332.78C372.89 332.81 372.78 332.84 372.67 332.88C372.58 332.9 372.5 332.93 372.41 332.96C372.37 332.97 372.33 332.99 372.29 333.01C372.23 333.03 372.17 333.05 372.11 333.07C371.98 333.12 371.86 333.17 371.74 333.22C371.64 333.26 371.54 333.3 371.44 333.35C371.35 333.39 371.25 333.44 371.15 333.49C370.87 333.63 370.6 333.79 370.33 333.96C370.29 333.99 370.24 334.02 370.2 334.05C370.06 334.14 369.93 334.24 369.8 334.34C369.73 334.4 369.65 334.47 369.57 334.53C369.57 334.54 369.57 334.54 369.56 334.54C369.44 334.65 369.32 334.76 369.21 334.87C369.08 335 368.93 335.15 368.82 335.32C368.79 335.36 368.77 335.4 368.75 335.44C368.73 335.46 368.73 335.48 368.71 335.5C368.7 335.53 368.69 335.56 368.68 335.59C368.65 335.66 368.64 335.73 368.65 335.8C368.7 336.31 368.79 336.83 368.9 337.34C368.92 337.45 368.94 337.56 368.96 337.67C369.03 338.06 369.1 338.45 369.14 338.84C369.25 339.99 370.11 340.45 371.21 340.87C371.23 340.84 371.25 340.8 371.27 340.77C371.29 340.73 371.31 340.69 371.33 340.66C371.36 340.61 371.39 340.56 371.41 340.52C371.44 340.47 371.47 340.43 371.5 340.38C371.51 340.35 371.53 340.33 371.54 340.31C371.58 340.24 371.62 340.17 371.65 340.1C371.7 340.01 371.75 339.91 371.78 339.82C371.79 339.79 371.8 339.77 371.81 339.74C371.81 339.73 371.81 339.72 371.82 339.7C371.85 339.58 371.85 339.42 371.82 339.28C371.82 339.27 371.81 339.27 371.81 339.26C371.81 339.23 371.8 339.2 371.79 339.17C371.76 339.09 371.72 339.03 371.67 338.99C371.64 338.96 371.61 338.94 371.58 338.92C371.45 338.8 371.33 338.69 371.22 338.57C371.2 338.54 371.18 338.52 371.16 338.5C371.04 338.35 370.95 338.2 370.88 338.04C370.86 337.99 370.84 337.94 370.82 337.89C370.76 337.73 370.73 337.56 370.72 337.39C370.71 337.36 370.71 337.34 370.71 337.31C370.71 337.28 370.71 337.25 370.71 337.22C370.71 337.22 370.71 337.22 370.71 337.22C370.71 336.96 370.75 336.69 370.82 336.4C370.86 336.27 370.88 336.15 370.9 336.02C370.92 335.9 370.94 335.78 370.95 335.67C370.96 335.61 370.96 335.54 370.96 335.48C370.98 335.3 371 335.11 371.02 334.93C371.04 334.83 371.06 334.7 371.1 334.61C371.11 334.6 371.11 334.58 371.12 334.57C371.13 334.56 371.14 334.55 371.15 334.54C371.16 334.53 371.17 334.53 371.17 334.53C371.28 334.48 371.39 334.42 371.49 334.37C371.54 334.34 371.59 334.32 371.65 334.29C372.25 333.98 372.85 333.64 373.48 333.52C373.57 333.5 373.66 333.49 373.75 333.48C374.08 333.45 374.41 333.42 374.74 333.4C374.96 333.39 375.18 333.38 375.4 333.37C375.51 333.37 375.62 333.37 375.73 333.37C375.95 333.36 376.17 333.36 376.4 333.36C376.4 333.36 376.4 333.36 376.41 333.36C376.41 333.25 376.41 332.39 376.41 332.29C375.57 332.27 374.71 332.35 373.84 332.56C373.55 332.62 373.27 332.7 372.99 332.78Z" id="b48r8YRzzh"></path><path d="M373.46 336.75C373.47 336.74 373.49 336.72 373.5 336.71C373.52 336.69 373.54 336.66 373.56 336.64C373.58 336.62 373.59 336.6 373.61 336.58C373.62 336.56 373.63 336.54 373.64 336.53C373.64 336.51 373.65 336.51 373.65 336.49C373.66 336.47 373.66 336.45 373.65 336.44C373.64 336.41 373.64 336.39 373.63 336.37C373.51 336.03 373.36 335.65 373.11 335.4C373.06 335.34 373.01 335.3 372.95 335.26C372.91 335.22 372.85 335.2 372.8 335.17C372.75 335.15 372.69 335.12 372.64 335.11C372.58 335.09 372.52 335.07 372.46 335.06C372.4 335.05 372.33 335.03 372.26 335.02C372.23 335.01 372.2 335.01 372.16 335C371.93 334.96 371.67 334.93 371.42 334.88C371.42 334.91 371.41 334.93 371.41 334.97C371.38 335.19 371.36 335.41 371.33 335.63C371.33 335.66 371.32 335.69 371.32 335.72C371.29 335.95 371.26 336.18 371.23 336.4C371.22 336.54 371.2 336.68 371.18 336.82C371.17 336.94 371.15 337.07 371.14 337.19C371.12 337.32 371.11 337.47 371.09 337.6C371.08 337.71 371.06 337.82 371.05 337.92C371.13 337.95 371.2 337.97 371.28 338C371.3 338.01 371.32 338.01 371.34 338.02C371.94 337.68 372.55 337.35 373.13 336.99C373.22 336.94 373.32 336.87 373.41 336.79C373.43 336.78 373.44 336.77 373.46 336.75Z" id="c4QDYOvnr9"></path><path d="M374.99 336.83C374.89 336.79 374.8 336.74 374.7 336.69C374.69 336.68 374.69 336.68 374.68 336.68C374.61 336.65 374.53 336.62 374.45 336.61C374.43 336.61 374.41 336.61 374.39 336.61C374.36 336.61 374.33 336.61 374.31 336.63C374.09 336.77 373.86 336.9 373.64 337.04C373.53 337.12 373.42 337.18 373.31 337.26C372.79 337.59 372.26 337.93 371.72 338.28C371.69 338.3 371.66 338.32 371.63 338.34C371.77 338.54 371.94 338.7 372.11 338.85C372.19 338.93 372.28 339 372.37 339.06C372.46 339.13 372.56 339.19 372.65 339.24C372.72 339.27 372.78 339.31 372.85 339.34C372.98 339.4 373.11 339.45 373.25 339.5C373.36 339.54 373.46 339.57 373.57 339.59C373.72 339.63 373.86 339.66 374.02 339.68C374.13 339.7 374.25 339.71 374.37 339.72C374.52 339.73 374.68 339.73 374.85 339.73C375.34 339.73 375.84 339.73 376.34 339.72C376.36 339.72 376.39 339.72 376.41 339.72C376.41 339.46 376.41 337.38 376.41 337.12C376.38 337.12 376.34 337.12 376.3 337.12C375.93 337.12 375.55 337.05 375.16 336.9C375.1 336.88 375.04 336.86 374.99 336.83Z" id="aID5u06O"></path><path d="M372.24 308.45C372.18 308.36 372.13 308.28 372.07 308.19C371.25 308.64 370.44 309.1 369.62 309.55C368.81 309.99 367.99 310.45 367.18 310.9C365.55 311.8 363.91 312.71 362.25 313.63C362.99 313.95 363.72 314.24 364.42 314.53C364.66 314.63 364.89 314.73 365.12 314.82C365.3 314.9 365.49 314.98 365.67 315.06C366.03 315.22 366.39 315.38 366.75 315.55C367.25 315.79 367.71 316.19 368.04 316.6C368.23 316.83 368.41 317.07 368.57 317.31C368.88 317.74 369.17 318.18 369.47 318.63C369.54 318.73 369.6 318.82 369.67 318.92C369.73 318.88 369.77 318.85 369.81 318.83C369.84 318.81 369.87 318.79 369.89 318.77C369.89 318.77 369.89 318.77 369.89 318.77C369.9 318.76 369.91 318.75 369.92 318.74C369.92 318.74 369.93 318.73 369.93 318.73C370.35 317.99 370.77 317.25 371.19 316.52C372.1 314.9 373.02 313.28 373.92 311.66C373.97 311.58 374 311.46 374.01 311.35C374.01 311.34 374.01 311.32 374.01 311.31C374.01 311.23 374 311.17 373.96 311.11C373.78 310.81 373.58 310.52 373.39 310.22C373.02 309.64 372.63 309.06 372.24 308.45Z" id="a3GA3LDiVj"></path><path d="M370.44 329.51C370.39 329.74 370.33 329.96 370.27 330.18C370.24 330.28 370.22 330.38 370.19 330.48C370.14 330.66 370.09 330.84 370.04 331.02C370 331.14 369.97 331.26 369.93 331.38C369.88 331.59 369.82 331.79 369.76 331.99C369.7 332.19 369.64 332.39 369.58 332.6C369.55 332.7 369.52 332.8 369.49 332.9C369.34 333.4 369.2 333.91 369.07 334.42C369.26 334.25 369.46 334.09 369.66 333.93C369.67 333.92 369.68 333.92 369.69 333.91C369.76 333.85 369.84 333.79 369.91 333.74C370.13 333.57 370.35 333.41 370.58 333.27C370.64 333.23 370.7 333.2 370.76 333.16C371.08 332.97 371.42 332.8 371.78 332.68C371.98 332.61 372.18 332.55 372.39 332.5C372.49 332.48 372.6 332.46 372.71 332.44C372.75 332.44 372.79 332.43 372.83 332.42C372.96 332.41 373.08 332.4 373.21 332.39C373.22 332.39 373.22 332.39 373.23 332.39C373.35 332.39 373.46 332.38 373.58 332.39C373.32 331.48 373.06 330.59 372.81 329.71C372.74 329.5 372.68 329.28 372.62 329.07C372.59 328.97 372.56 328.87 372.53 328.77C372.13 327.38 371.73 326.01 371.33 324.63C371.33 324.63 371.32 324.63 371.31 324.63C371.21 324.63 371.11 324.63 371 324.62C371.04 325.26 371.02 325.89 370.97 326.51C370.96 326.61 370.95 326.72 370.94 326.82C370.92 327.01 370.89 327.2 370.86 327.39C370.82 327.73 370.76 328.07 370.69 328.4C370.66 328.57 370.62 328.73 370.59 328.9C370.58 328.95 370.56 328.99 370.56 329.03C370.52 329.19 370.48 329.35 370.44 329.51Z" id="m1f1RY50dG"></path><path d="M362.87 311.21C362.73 311.44 362.56 311.67 362.36 311.89C362.1 312.18 362.13 312.7 362.01 313.22C362.13 313.19 362.22 313.17 362.29 313.16C362.29 313.15 362.31 313.15 362.31 313.15C362.34 313.14 362.37 313.14 362.39 313.13C362.43 313.12 362.46 313.11 362.49 313.09C365.06 311.67 367.64 310.25 370.2 308.82C370.68 308.56 371.15 308.29 371.62 308.03C371.79 307.94 371.95 307.77 372.04 307.6C372.05 307.58 372.06 307.56 372.07 307.53C372.1 307.43 372.14 307.33 372.18 307.22C372.24 307.07 372.29 306.91 372.34 306.76C372.44 306.45 372.55 306.12 372.66 305.79C372.75 305.51 372.84 305.22 372.94 304.92C372.33 304.87 371.75 304.76 371.19 304.67C371.14 304.66 371.1 304.66 371.05 304.65C370.88 304.63 370.7 304.6 370.53 304.59C370.49 304.58 370.44 304.58 370.4 304.58C370.27 304.56 370.14 304.56 370.01 304.56C369.97 304.56 369.93 304.56 369.88 304.56C369.84 304.56 369.79 304.56 369.75 304.56C369.4 304.56 369.05 304.61 368.69 304.72C368.27 304.84 367.84 304.93 367.41 305.01C367.3 305.03 367.19 305.05 367.09 305.07C366.92 305.1 366.76 305.13 366.6 305.16C366.43 305.19 366.27 305.22 366.11 305.25C366.01 305.27 365.91 305.29 365.81 305.31C365.69 305.35 365.57 305.38 365.45 305.42C364.49 305.75 363.87 306.35 363.68 307.21C363.62 307.44 363.6 307.69 363.62 307.95C363.64 308.45 363.62 308.92 363.55 309.39C363.55 309.4 363.55 309.41 363.55 309.42C363.54 309.49 363.52 309.56 363.51 309.63C363.5 309.65 363.5 309.66 363.5 309.67C363.48 309.78 363.45 309.89 363.42 309.99C363.38 310.13 363.34 310.26 363.29 310.39C363.23 310.55 363.16 310.7 363.08 310.86C363.04 310.94 363 311 362.96 311.06C362.93 311.11 362.9 311.17 362.87 311.21Z" id="a12WrxzPrV"></path><path d="M373.81 323.65C373.3 324.25 372.8 324.84 372.3 325.44C372.19 325.56 372.11 325.76 372.12 325.91C372.12 325.93 372.13 325.95 372.14 325.97C372.21 326.23 372.28 326.49 372.35 326.75C372.5 327.27 372.65 327.79 372.8 328.31C373.02 329.09 373.25 329.88 373.48 330.67C373.63 331.2 373.79 331.74 373.94 332.28C374.39 332.15 374.84 332.05 375.29 331.98C375.35 331.97 375.42 331.97 375.48 331.96C375.79 331.92 376.1 331.9 376.41 331.9C376.41 330.78 376.41 321.78 376.41 320.66C376.4 320.65 376.39 320.64 376.38 320.63C376.21 320.84 376.03 321.04 375.86 321.25C375.17 322.06 374.48 322.86 373.81 323.65Z" id="duzb8bdbX"></path><path d="M376.21 315.79C376.28 315.07 376.09 314.46 375.79 313.89C375.74 313.81 375.7 313.73 375.65 313.65C375.6 313.57 375.55 313.5 375.5 313.42C375.37 313.22 375.24 313.03 375.1 312.83C374.85 312.48 374.6 312.12 374.38 311.75C374.35 311.78 374.32 311.82 374.3 311.84C374.25 311.91 374.21 311.96 374.17 312C374.15 312.02 374.13 312.05 374.12 312.08C373.8 312.62 373.5 313.16 373.18 313.71C372.56 314.79 371.94 315.87 371.32 316.96C371 317.5 370.69 318.04 370.38 318.58C370.11 319.06 370.08 319.49 370.3 319.89C370.37 320.02 370.47 320.15 370.6 320.27C370.64 320.31 370.67 320.35 370.7 320.38C370.73 320.42 370.76 320.46 370.79 320.49C371.2 321 371.27 321.57 371.27 322.24C371.27 322.42 371.29 322.61 371.31 322.79C371.32 322.9 371.33 323 371.35 323.11C371.35 323.12 371.35 323.14 371.35 323.15C371.46 323.8 371.64 324.45 371.76 325.1C371.87 325.1 371.97 325.11 372.08 325.11C372.14 325.03 372.2 324.96 372.27 324.88C372.46 324.65 372.65 324.43 372.84 324.2C373.87 322.98 374.91 321.76 375.92 320.52C376.05 320.36 376.11 320.14 376.14 319.93C376.15 319.85 376.16 319.77 376.16 319.7C376.17 319.29 376.16 318.88 376.15 318.47C376.15 318.47 376.15 318.47 376.15 318.47C376.15 318.23 376.14 317.98 376.13 317.74C376.13 317.74 376.13 317.74 376.13 317.73C376.13 317.57 376.13 317.41 376.13 317.25C376.13 317.25 376.13 317.25 376.13 317.25C376.14 317.09 376.15 316.93 376.15 316.77C376.16 316.44 376.17 316.12 376.21 315.79Z" id="aMsPMf25P"></path><path d="M375.44 305.27C375.22 305.25 375 305.23 374.78 305.21C374.47 305.17 374.15 305.12 373.83 305.06C373.82 305.06 373.8 305.06 373.79 305.06C373.7 305.05 373.59 305.07 373.49 305.11C373.47 305.12 373.46 305.13 373.44 305.13C373.42 305.14 373.39 305.15 373.36 305.17C373.3 305.2 373.26 305.24 373.25 305.27C372.77 306.67 371.83 308.06 373.32 309.45C373.46 309.59 373.58 309.75 373.69 309.92C373.76 310.03 373.82 310.15 373.89 310.27C373.99 310.44 374.09 310.62 374.2 310.79C374.61 311.41 375.02 312.04 375.44 312.68C375.53 312.81 375.62 312.94 375.71 313.08C375.81 313.24 375.91 313.39 376.01 313.55C376.13 313.73 376.26 313.92 376.38 314.11C376.39 314.1 376.4 314.09 376.4 314.08C376.4 313.2 376.4 306.18 376.4 305.3C376.39 305.3 376.38 305.3 376.37 305.3C376.26 305.3 376.15 305.3 376.04 305.29C375.84 305.29 375.64 305.28 375.44 305.27Z" id="bgP3FPLJK"></path><path d="M367.66 316.67C367.52 316.46 367.37 316.2 367.15 316.1C365.53 315.39 363.89 314.71 362.2 313.99C362.2 314.9 362.18 315.68 362.21 316.47C362.22 316.98 362.21 317.52 362.38 317.99C362.71 318.91 363.09 319.82 363.6 320.66C363.99 321.32 364.48 322.13 365.17 322.4C366.88 323.1 368.73 323.54 370.7 324.13C370.78 323.22 370.85 322.46 370.88 321.71C370.9 321.52 370.82 321.31 370.72 321.15C369.71 319.65 368.69 318.16 367.66 316.67ZM364.33 319.25C364.16 319.18 364.01 318.98 363.95 318.81C363.68 318.09 363.44 317.36 363.18 316.62C365.65 316.66 367.76 317.82 367.13 320.3C366.15 319.94 365.23 319.61 364.33 319.25Z" id="bbj7LalMQ"></path><path d="M364.45 322.54C363.67 321.31 362.91 320.05 362.1 318.73C362.06 319.23 362.03 319.69 361.98 320.14C361.62 323.21 362.28 326.06 364.28 328.63C365.14 329.74 365.88 330.93 366.69 332.09C366.79 332.24 366.93 332.38 367.13 332.63C367.13 331.14 367.01 329.78 367.16 328.45C367.38 326.44 366.69 324.79 365.17 323.36C364.9 323.11 364.64 322.84 364.45 322.54Z" id="fIlRORDOD"></path><path d="M357.46 313.93C356.2 313.42 354.9 313.72 353.63 313.56C353.61 313.6 353.59 313.64 353.57 313.68C354.42 314.58 355.28 315.48 356.14 316.38C356.19 316.44 356.3 316.48 356.39 316.48C357.98 316.52 359.57 316.57 361.17 316.59C361.42 316.59 361.74 316.6 361.75 316.23C361.75 315.87 361.82 315.55 361.3 315.37C360.01 314.93 358.72 314.46 357.46 313.93Z" id="bz7Xa2sXl"></path><path d="M366.71 319.58C367.08 318.23 366.01 317.28 363.75 317.01C364.23 318.99 364.84 319.51 366.71 319.58Z" id="azLxlgGVo"></path><path d="M385.86 310.22C383.26 311.07 380.67 311.93 378.08 312.79C377.93 312.85 377.78 312.91 377.53 313.01C378.07 313.35 378.53 313.64 378.98 313.93C381.95 315.81 384.93 317.68 387.89 319.58C388.23 319.8 388.46 319.81 388.75 319.51C389.21 319.05 389.72 318.63 390.2 318.2C391.18 317.31 392.16 316.42 393.22 315.47C393.09 315.39 393 315.35 392.93 315.29C390.83 313.61 388.73 311.94 386.61 310.29C386.44 310.16 386.09 310.15 385.86 310.22Z" id="o9ZnbtQTg"></path><path d="M387.16 328.59C386.49 327.01 385.82 325.42 385.18 323.82C385.01 323.4 384.81 323.31 384.39 323.44C383.86 323.62 383.32 323.74 382.78 323.87C381.83 324.12 380.88 324.35 379.87 324.61C381.25 328.97 382.93 333.18 383.46 337.75C383.62 337.66 383.66 337.65 383.68 337.63C385.07 335.32 386.46 333.01 387.84 330.69C387.92 330.55 387.91 330.29 387.85 330.13C387.64 329.61 387.38 329.11 387.16 328.59Z" id="b24f2PMpUW"></path><path d="M395.19 303.23C395.16 303.13 395.1 303.04 395.03 302.89C392.25 305.22 389.5 307.51 386.69 309.87C388.97 311.68 391.17 313.42 393.38 315.18C393.46 315.06 393.51 315.01 393.54 314.94C394.49 312.74 395.44 310.54 396.37 308.33C396.45 308.13 396.44 307.85 396.38 307.63C396 306.16 395.59 304.7 395.19 303.23Z" id="gh1MzlQF7"></path><path d="M389.95 334.55C391.69 333.09 393.45 331.63 395.25 330.13C392.51 327.45 389.84 324.84 387.16 322.22C387.11 322.25 387.06 322.28 387.01 322.32C387.84 326.42 387.99 330.67 389.95 334.55Z" id="a4VdLm8PhS"></path><path d="M382.34 321.32C382.51 321.37 382.71 321.42 382.88 321.38C384.51 320.95 386.14 320.5 387.93 320.01C384.31 317.72 380.82 315.52 377.31 313.3C377.27 313.41 377.23 313.46 377.23 313.5C377.23 315.46 377.22 317.41 377.25 319.36C377.25 319.52 377.49 319.77 377.67 319.83C379.22 320.34 380.78 320.83 382.34 321.32Z" id="i1o20ZqSz2"></path><path d="M388.79 320.31C388.65 320.29 388.46 320.28 388.36 320.36C387.91 320.73 387.48 321.13 387.01 321.55C389.77 324.25 392.47 326.89 395.28 329.64C395.3 329.34 395.32 329.21 395.32 329.08C395.35 326.6 395.36 324.13 395.41 321.64C395.42 321.17 395.25 321.04 394.83 321C392.81 320.78 390.8 320.54 388.79 320.31Z" id="b1twwnID34"></path><path d="M382.16 334.9C381.6 336.53 381.06 338.17 380.47 339.79C380.39 340.02 380.17 340.26 379.95 340.36C379.1 340.73 378.23 341.07 377.36 341.38C377.26 341.42 377.15 341.43 377.03 341.43C377.03 341.53 377.03 342.32 377.03 342.42C377.15 342.42 377.26 342.41 377.37 342.38C378.55 342.05 379.73 341.71 380.9 341.34C381.12 341.27 381.36 341.09 381.49 340.9C382.02 340.15 382.52 339.37 383.01 338.6C383.1 338.46 383.2 338.25 383.17 338.09C382.97 336.85 382.72 335.6 382.49 334.36C382.31 334.53 382.23 334.71 382.16 334.9Z" id="c3ya1qgIm2"></path><path d="M378.88 335.81C378.66 335.24 378.58 334.43 378.16 334.16C377.88 333.97 377.46 333.98 377.03 334.02C377.03 334.52 377.03 338.52 377.03 339.02C377.09 339.02 377.16 339.01 377.21 338.99C378.02 338.66 378.82 338.32 379.68 337.95C379.39 337.18 379.14 336.49 378.88 335.81Z" id="b2s4yfp3YG"></path><path d="M393.45 315.75C391.89 317.17 390.41 318.49 388.8 319.94C391.04 320.21 393.11 320.45 395.31 320.72C394.67 319 394.07 317.42 393.45 315.75Z" id="d1Mti03ptJ"></path><path d="M381.96 334.36C381.91 334.34 381.87 334.31 381.82 334.28C381.61 334.61 381.34 334.92 381.18 335.27C380.82 336.11 380.52 336.98 380.16 337.83C380.08 338.03 379.88 338.24 379.69 338.32C378.81 338.71 377.93 339.32 377.03 339.35C377.03 339.51 377.03 340.75 377.03 340.9C377.47 340.9 377.92 340.82 378.4 340.65C379.66 340.23 380.35 339.53 380.67 338.24C381 336.92 381.53 335.65 381.96 334.36Z" id="a2Q0ExsGFa"></path><path d="M387.16 309C389.59 306.97 392.03 304.94 394.51 302.86C394.35 302.82 394.3 302.79 394.25 302.8C392.83 302.91 391.4 303 389.98 303.15C389.8 303.17 389.58 303.39 389.49 303.58C388.73 305.19 388 306.81 387.26 308.43C387.18 308.59 387.12 308.76 387.06 308.92C387.1 308.95 387.13 308.97 387.16 309Z" id="a7ykvt6Em4"></path><path d="M378.39 312.16C378.42 312.2 378.44 312.24 378.47 312.28C381.02 311.43 383.57 310.59 386.18 309.72C385.99 308.71 385.8 307.74 385.6 306.66C383.12 308.55 380.76 310.36 378.39 312.16Z" id="axrSDuMLW"></path><path d="M384.1 337.66C385.9 336.83 387.6 335.92 389.29 334.99C389.4 334.93 389.52 334.71 389.49 334.61C389.08 333.41 388.64 332.22 388.16 330.89C386.76 333.23 385.42 335.44 384.1 337.66Z" id="bXcd8S5yt"></path><path d="M380.5 324.01C381.34 323.81 382.17 323.54 383.02 323.42C384.36 323.22 385.46 322.64 386.38 321.64C386.7 321.28 387.08 320.98 387.43 320.65C386.28 320.84 385.2 321.23 384.09 321.41C382.46 321.68 381.6 322.98 380.5 324.01Z" id="a1NB3cQNDD"></path><path d="M386.18 325.29C386.66 326.4 387.13 327.5 387.61 328.61C387.64 328.6 387.67 328.59 387.7 328.58C387.34 326.4 386.98 324.23 386.61 321.92C386.23 322.28 385.95 322.56 385.63 322.82C385.36 323.04 385.29 323.24 385.46 323.58C385.72 324.13 385.94 324.72 386.18 325.29Z" id="dmCLgz0eG"></path><path d="M386.43 309.06C386.47 309.06 386.52 309.07 386.57 309.08C387.34 307.38 388.11 305.69 388.88 303.99C388.84 303.97 388.8 303.95 388.76 303.92C387.89 304.68 387.02 305.43 386.16 306.21C386.05 306.32 385.96 306.55 385.99 306.7C386.11 307.49 386.28 308.27 386.43 309.06Z" id="buGAyIeV"></path><path d="M379.25 332.19C379.49 332.2 379.8 332.4 379.94 332.6C380.38 333.18 380.74 333.81 381.18 334.47C381.42 334.21 381.61 333.97 381.83 333.79C382.23 333.45 382.26 333.1 382.09 332.61C381.26 330.12 380.49 327.61 379.65 325.14C379.45 324.54 379.52 324.19 380 323.8C380.78 323.17 381.49 322.46 382.25 321.77C382.14 321.7 382.1 321.65 382.05 321.64C380.46 321.12 378.87 320.6 377.27 320.1C377.2 320.08 377.11 320.07 377.03 320.08C377.03 320.88 377.03 324.88 377.03 332.09L377.03 332.17C377.03 332.83 377.03 333.2 377.03 333.27C377.88 333.32 378.71 333.31 379.15 332.19C379.18 332.19 379.22 332.19 379.25 332.19Z" id="b1unMS66U1"></path><path d="M379.99 337.32C380.29 336.55 380.59 335.76 380.92 334.92C380.19 334.68 379.5 334.45 378.65 334.16C379.09 335.34 379.47 336.35 379.85 337.35C379.89 337.34 379.94 337.33 379.99 337.32Z" id="cBZpaDCwW"></path><path d="M378.67 333.79C379.36 334.01 379.94 334.2 380.54 334.39C380.57 334.36 380.59 334.32 380.62 334.29C380.29 333.77 379.96 333.25 379.59 332.67C379.26 333.07 378.99 333.39 378.67 333.79Z" id="a18ToTZr33"></path><path d="M377.31 312.53C379.67 310.72 381.97 308.97 384.27 307.22C384.41 307.12 385.11 306.6 386.38 305.67C380.93 305.53 377.91 305.46 377.31 305.45C377.31 307.57 377.31 309.63 377.31 311.76C377.3 311.81 377.28 312.02 377.23 312.41L377.31 312.35C377.31 312.43 377.31 312.49 377.31 312.53Z" id="a1c6k9JLeE"></path></defs><g><g><use xlink:href="#aCdztPw9h" opacity="1" fill="#45fff4" fill-opacity="1"></use><g><use xlink:href="#aCdztPw9h" opacity="1" fill-opacity="0" stroke="#000000" stroke-width="1" stroke-opacity="0"></use></g></g><g><use xlink:href="#b1pz08sCGj" opacity="1" fill="#45fff4" fill-opacity="1"></use><g><use xlink:href="#b1pz08sCGj" opacity="1" fill-opacity="0" stroke="#000000" stroke-width="1" stroke-opacity="0"></use></g></g><g><use xlink:href="#d5Zq8rzUXV" opacity="1" fill="#000000" fill-opacity="0"></use><g><use xlink:href="#d5Zq8rzUXV" opacity="1" fill-opacity="0" stroke="#000000" stroke-width="1" stroke-opacity="0"></use></g></g><g><use xlink:href="#a6wQhn8yWf" opacity="1" fill="#000000" fill-opacity="0"></use><g><use xlink:href="#a6wQhn8yWf" opacity="1" fill-opacity="0" stroke="#000000" stroke-width="1" stroke-opacity="0"></use></g></g><g><use xlink:href="#ciGVyeccX" opacity="1" fill="#000000" fill-opacity="0"></use><g><use xlink:href="#ciGVyeccX" opacity="1" fill-opacity="0" stroke="#000000" stroke-width="1" stroke-opacity="0"></use></g></g><g><use xlink:href="#m1nC4467Jr" opacity="1" fill="#000000" fill-opacity="0"></use><g><use xlink:href="#m1nC4467Jr" opacity="1" fill-opacity="0" stroke="#000000" stroke-width="1" stroke-opacity="0"></use></g></g><g><use xlink:href="#bneezHjGB" opacity="1" fill="#000000" fill-opacity="0"></use><g><use xlink:href="#bneezHjGB" opacity="1" fill-opacity="0" stroke="#000000" stroke-width="1" stroke-opacity="0"></use></g></g><g><use xlink:href="#bxX7S0vii" opacity="1" fill="#000000" fill-opacity="0"></use><g><use xlink:href="#bxX7S0vii" opacity="1" fill-opacity="0" stroke="#000000" stroke-width="1" stroke-opacity="0"></use></g></g><g><use xlink:href="#aoLzCTGY" opacity="1" fill="#000000" fill-opacity="0"></use><g><use xlink:href="#aoLzCTGY" opacity="1" fill-opacity="0" stroke="#000000" stroke-width="1" stroke-opacity="0"></use></g></g><g><use xlink:href="#aLX8LkSnC" opacity="1" fill="#45fff4" fill-opacity="1"></use><g><use xlink:href="#aLX8LkSnC" opacity="1" fill-opacity="0" stroke="#000000" stroke-width="1" stroke-opacity="0"></use></g></g><g><use xlink:href="#b264yc7bOo" opacity="1" fill="#45fff4" fill-opacity="1"></use><g><use xlink:href="#b264yc7bOo" opacity="1" fill-opacity="0" stroke="#000000" stroke-width="1" stroke-opacity="0"></use></g></g><g><use xlink:href="#cciVsBl3S" opacity="1" fill="#45fff4" fill-opacity="1"></use><g><use xlink:href="#cciVsBl3S" opacity="1" fill-opacity="0" stroke="#000000" stroke-width="1" stroke-opacity="0"></use></g></g><g><use xlink:href="#beIq9rjcG" opacity="1" fill="#45fff4" fill-opacity="1"></use><g><use xlink:href="#beIq9rjcG" opacity="1" fill-opacity="0" stroke="#000000" stroke-width="1" stroke-opacity="0"></use></g></g><g><use xlink:href="#hJsHYJcmH" opacity="1" fill="#45fff4" fill-opacity="1"></use><g><use xlink:href="#hJsHYJcmH" opacity="1" fill-opacity="0" stroke="#000000" stroke-width="1" stroke-opacity="0"></use></g></g><g><use xlink:href="#eUYyFcjU" opacity="1" fill="#45fff4" fill-opacity="1"></use><g><use xlink:href="#eUYyFcjU" opacity="1" fill-opacity="0" stroke="#000000" stroke-width="1" stroke-opacity="0"></use></g></g><g><use xlink:href="#bdwPL95Uh" opacity="1" fill="#45fff4" fill-opacity="1"></use><g><use xlink:href="#bdwPL95Uh" opacity="1" fill-opacity="0" stroke="#000000" stroke-width="1" stroke-opacity="0"></use></g></g><g><use xlink:href="#bG1IA7Kwr" opacity="1" fill="#45fff4" fill-opacity="1"></use><g><use xlink:href="#bG1IA7Kwr" opacity="1" fill-opacity="0" stroke="#000000" stroke-width="1" stroke-opacity="0"></use></g></g><g><use xlink:href="#i4Uig3pOP" opacity="1" fill="#d126b1" fill-opacity="1"></use><g><use xlink:href="#i4Uig3pOP" opacity="1" fill-opacity="0" stroke="#000000" stroke-width="1" stroke-opacity="0"></use></g></g><g><use xlink:href="#aA05cRsH0" opacity="1" fill="#d126b1" fill-opacity="1"></use><g><use xlink:href="#aA05cRsH0" opacity="1" fill-opacity="0" stroke="#000000" stroke-width="1" stroke-opacity="0"></use></g></g><g><use xlink:href="#btAAQjYSv" opacity="1" fill="#d126b1" fill-opacity="1"></use><g><use xlink:href="#btAAQjYSv" opacity="1" fill-opacity="0" stroke="#000000" stroke-width="1" stroke-opacity="0"></use></g></g><g><use xlink:href="#a2lZIrbJlI" opacity="1" fill="#d126b1" fill-opacity="1"></use><g><use xlink:href="#a2lZIrbJlI" opacity="1" fill-opacity="0" stroke="#000000" stroke-width="1" stroke-opacity="0"></use></g></g><g><use xlink:href="#bfZ8ov2qA" opacity="1" fill="#d126b1" fill-opacity="1"></use><g><use xlink:href="#bfZ8ov2qA" opacity="1" fill-opacity="0" stroke="#000000" stroke-width="1" stroke-opacity="0"></use></g></g><g><use xlink:href="#a4BGKoahb" opacity="1" fill="#45fff4" fill-opacity="1"></use><g><use xlink:href="#a4BGKoahb" opacity="1" fill-opacity="0" stroke="#000000" stroke-width="1" stroke-opacity="0"></use></g></g><g><use xlink:href="#frJytBvZT" opacity="1" fill="#45fff4" fill-opacity="1"></use><g><use xlink:href="#frJytBvZT" opacity="1" fill-opacity="0" stroke="#000000" stroke-width="1" stroke-opacity="0"></use></g></g><g><use xlink:href="#b2VAUC1JJo" opacity="1" fill="#45fff4" fill-opacity="1"></use><g><use xlink:href="#b2VAUC1JJo" opacity="1" fill-opacity="0" stroke="#000000" stroke-width="1" stroke-opacity="0"></use></g></g><g><use xlink:href="#a1rQF5vL2c" opacity="1" fill="#45fff4" fill-opacity="1"></use><g><use xlink:href="#a1rQF5vL2c" opacity="1" fill-opacity="0" stroke="#000000" stroke-width="1" stroke-opacity="0"></use></g></g><g><use xlink:href="#g1WEsO3FW" opacity="1" fill="#45fff4" fill-opacity="1"></use><g><use xlink:href="#g1WEsO3FW" opacity="1" fill-opacity="0" stroke="#000000" stroke-width="1" stroke-opacity="0"></use></g></g><g><use xlink:href="#kMeRanVKS" opacity="1" fill="#45fff4" fill-opacity="1"></use><g><use xlink:href="#kMeRanVKS" opacity="1" fill-opacity="0" stroke="#000000" stroke-width="1" stroke-opacity="0"></use></g></g><g><use xlink:href="#a382Q2kjm7" opacity="1" fill="#45fff4" fill-opacity="1"></use><g><use xlink:href="#a382Q2kjm7" opacity="1" fill-opacity="0" stroke="#000000" stroke-width="1" stroke-opacity="0"></use></g></g><g><use xlink:href="#bgDB5wevA" opacity="1" fill="#45fff4" fill-opacity="1"></use><g><use xlink:href="#bgDB5wevA" opacity="1" fill-opacity="0" stroke="#000000" stroke-width="1" stroke-opacity="0"></use></g></g><g><use xlink:href="#erVG73Mq1" opacity="1" fill="#45fff4" fill-opacity="1"></use><g><use xlink:href="#erVG73Mq1" opacity="1" fill-opacity="0" stroke="#000000" stroke-width="1" stroke-opacity="0"></use></g></g><g><use xlink:href="#b48r8YRzzh" opacity="1" fill="#45fff4" fill-opacity="1"></use><g><use xlink:href="#b48r8YRzzh" opacity="1" fill-opacity="0" stroke="#000000" stroke-width="1" stroke-opacity="0"></use></g></g><g><use xlink:href="#c4QDYOvnr9" opacity="1" fill="#45fff4" fill-opacity="1"></use><g><use xlink:href="#c4QDYOvnr9" opacity="1" fill-opacity="0" stroke="#000000" stroke-width="1" stroke-opacity="0"></use></g></g><g><use xlink:href="#aID5u06O" opacity="1" fill="#45fff4" fill-opacity="1"></use><g><use xlink:href="#aID5u06O" opacity="1" fill-opacity="0" stroke="#000000" stroke-width="1" stroke-opacity="0"></use></g></g><g><use xlink:href="#a3GA3LDiVj" opacity="1" fill="#45fff4" fill-opacity="1"></use><g><use xlink:href="#a3GA3LDiVj" opacity="1" fill-opacity="0" stroke="#000000" stroke-width="1" stroke-opacity="0"></use></g></g><g><use xlink:href="#m1f1RY50dG" opacity="1" fill="#45fff4" fill-opacity="1"></use><g><use xlink:href="#m1f1RY50dG" opacity="1" fill-opacity="0" stroke="#000000" stroke-width="1" stroke-opacity="0"></use></g></g><g><use xlink:href="#a12WrxzPrV" opacity="1" fill="#45fff4" fill-opacity="1"></use><g><use xlink:href="#a12WrxzPrV" opacity="1" fill-opacity="0" stroke="#000000" stroke-width="1" stroke-opacity="0"></use></g></g><g><use xlink:href="#duzb8bdbX" opacity="1" fill="#45fff4" fill-opacity="1"></use><g><use xlink:href="#duzb8bdbX" opacity="1" fill-opacity="0" stroke="#000000" stroke-width="1" stroke-opacity="0"></use></g></g><g><use xlink:href="#aMsPMf25P" opacity="1" fill="#45fff4" fill-opacity="1"></use><g><use xlink:href="#aMsPMf25P" opacity="1" fill-opacity="0" stroke="#000000" stroke-width="1" stroke-opacity="0"></use></g></g><g><use xlink:href="#bgP3FPLJK" opacity="1" fill="#45fff4" fill-opacity="1"></use><g><use xlink:href="#bgP3FPLJK" opacity="1" fill-opacity="0" stroke="#000000" stroke-width="1" stroke-opacity="0"></use></g></g><g><use xlink:href="#bbj7LalMQ" opacity="1" fill="#45fff4" fill-opacity="1"></use><g><use xlink:href="#bbj7LalMQ" opacity="1" fill-opacity="0" stroke="#000000" stroke-width="1" stroke-opacity="0"></use></g></g><g><use xlink:href="#fIlRORDOD" opacity="1" fill="#45fff4" fill-opacity="1"></use><g><use xlink:href="#fIlRORDOD" opacity="1" fill-opacity="0" stroke="#000000" stroke-width="1" stroke-opacity="0"></use></g></g><g><use xlink:href="#bz7Xa2sXl" opacity="1" fill="#45fff4" fill-opacity="1"></use><g><use xlink:href="#bz7Xa2sXl" opacity="1" fill-opacity="0" stroke="#000000" stroke-width="1" stroke-opacity="0"></use></g></g><g><use xlink:href="#azLxlgGVo" opacity="1" fill="#45fff4" fill-opacity="1"></use><g><use xlink:href="#azLxlgGVo" opacity="1" fill-opacity="0" stroke="#000000" stroke-width="1" stroke-opacity="0"></use></g></g><g><use xlink:href="#o9ZnbtQTg" opacity="1" fill="#d126b1" fill-opacity="1"></use><g><use xlink:href="#o9ZnbtQTg" opacity="1" fill-opacity="0" stroke="#000000" stroke-width="1" stroke-opacity="0"></use></g></g><g><use xlink:href="#b24f2PMpUW" opacity="1" fill="#d126b1" fill-opacity="1"></use><g><use xlink:href="#b24f2PMpUW" opacity="1" fill-opacity="0" stroke="#000000" stroke-width="1" stroke-opacity="0"></use></g></g><g><use xlink:href="#gh1MzlQF7" opacity="1" fill="#d126b1" fill-opacity="1"></use><g><use xlink:href="#gh1MzlQF7" opacity="1" fill-opacity="0" stroke="#000000" stroke-width="1" stroke-opacity="0"></use></g></g><g><use xlink:href="#a4VdLm8PhS" opacity="1" fill="#d126b1" fill-opacity="1"></use><g><use xlink:href="#a4VdLm8PhS" opacity="1" fill-opacity="0" stroke="#000000" stroke-width="1" stroke-opacity="0"></use></g></g><g><use xlink:href="#i1o20ZqSz2" opacity="1" fill="#d126b1" fill-opacity="1"></use><g><use xlink:href="#i1o20ZqSz2" opacity="1" fill-opacity="0" stroke="#000000" stroke-width="1" stroke-opacity="0"></use></g></g><g><use xlink:href="#b1twwnID34" opacity="1" fill="#d126b1" fill-opacity="1"></use><g><use xlink:href="#b1twwnID34" opacity="1" fill-opacity="0" stroke="#000000" stroke-width="1" stroke-opacity="0"></use></g></g><g><use xlink:href="#c3ya1qgIm2" opacity="1" fill="#d126b1" fill-opacity="1"></use><g><use xlink:href="#c3ya1qgIm2" opacity="1" fill-opacity="0" stroke="#000000" stroke-width="1" stroke-opacity="0"></use></g></g><g><use xlink:href="#b2s4yfp3YG" opacity="1" fill="#d126b1" fill-opacity="1"></use><g><use xlink:href="#b2s4yfp3YG" opacity="1" fill-opacity="0" stroke="#000000" stroke-width="1" stroke-opacity="0"></use></g></g><g><use xlink:href="#d1Mti03ptJ" opacity="1" fill="#d126b1" fill-opacity="1"></use><g><use xlink:href="#d1Mti03ptJ" opacity="1" fill-opacity="0" stroke="#000000" stroke-width="1" stroke-opacity="0"></use></g></g><g><use xlink:href="#a2Q0ExsGFa" opacity="1" fill="#d126b1" fill-opacity="1"></use><g><use xlink:href="#a2Q0ExsGFa" opacity="1" fill-opacity="0" stroke="#000000" stroke-width="1" stroke-opacity="0"></use></g></g><g><use xlink:href="#a7ykvt6Em4" opacity="1" fill="#d126b1" fill-opacity="1"></use><g><use xlink:href="#a7ykvt6Em4" opacity="1" fill-opacity="0" stroke="#000000" stroke-width="1" stroke-opacity="0"></use></g></g><g><use xlink:href="#axrSDuMLW" opacity="1" fill="#d126b1" fill-opacity="1"></use><g><use xlink:href="#axrSDuMLW" opacity="1" fill-opacity="0" stroke="#000000" stroke-width="1" stroke-opacity="0"></use></g></g><g><use xlink:href="#bXcd8S5yt" opacity="1" fill="#d126b1" fill-opacity="1"></use><g><use xlink:href="#bXcd8S5yt" opacity="1" fill-opacity="0" stroke="#000000" stroke-width="1" stroke-opacity="0"></use></g></g><g><use xlink:href="#a1NB3cQNDD" opacity="1" fill="#d126b1" fill-opacity="1"></use><g><use xlink:href="#a1NB3cQNDD" opacity="1" fill-opacity="0" stroke="#000000" stroke-width="1" stroke-opacity="0"></use></g></g><g><use xlink:href="#dmCLgz0eG" opacity="1" fill="#d126b1" fill-opacity="1"></use><g><use xlink:href="#dmCLgz0eG" opacity="1" fill-opacity="0" stroke="#000000" stroke-width="1" stroke-opacity="0"></use></g></g><g><use xlink:href="#buGAyIeV" opacity="1" fill="#d126b1" fill-opacity="1"></use><g><use xlink:href="#buGAyIeV" opacity="1" fill-opacity="0" stroke="#000000" stroke-width="1" stroke-opacity="0"></use></g></g><g><use xlink:href="#b1unMS66U1" opacity="1" fill="#d126b1" fill-opacity="1"></use><g><use xlink:href="#b1unMS66U1" opacity="1" fill-opacity="0" stroke="#000000" stroke-width="1" stroke-opacity="0"></use></g></g><g><use xlink:href="#cBZpaDCwW" opacity="1" fill="#d126b1" fill-opacity="1"></use><g><use xlink:href="#cBZpaDCwW" opacity="1" fill-opacity="0" stroke="#000000" stroke-width="1" stroke-opacity="0"></use></g></g><g><use xlink:href="#a18ToTZr33" opacity="1" fill="#d126b1" fill-opacity="1"></use><g><use xlink:href="#a18ToTZr33" opacity="1" fill-opacity="0" stroke="#000000" stroke-width="1" stroke-opacity="0"></use></g></g><g><use xlink:href="#a1c6k9JLeE" opacity="1" fill="#d126b1" fill-opacity="1"></use><g><use xlink:href="#a1c6k9JLeE" opacity="1" fill-opacity="0" stroke="#000000" stroke-width="1" stroke-opacity="0"></use></g></g></g></svg>